<?xml version="1.0" encoding="UTF-8"?>
<svg xmlns="http://www.w3.org/2000/svg" version="1.1" viewBox="0 0 66 80">
  <defs>
    <style>
      .cls-1 {
        fill: none;
        stroke-width: 3px;
      }

      .cls-1, .cls-2, .cls-3, .cls-4, .cls-5, .cls-6, .cls-7, .cls-8 {
        stroke-miterlimit: 10;
      }

      .cls-1, .cls-4 {
        stroke: #e5b745;
      }

      .cls-2 {
        stroke: #7f6021;
      }

      .cls-2, .cls-9, .cls-5, .cls-6, .cls-7 {
        fill: #e5b745;
      }

      .cls-2, .cls-3, .cls-8 {
        stroke-width: .1px;
      }

      .cls-3 {
        display: none;
        fill: #fcc81a;
      }

      .cls-3, .cls-8 {
        stroke: #383951;
      }

      .cls-4 {
        stroke-width: .3px;
      }

      .cls-4, .cls-8 {
        fill: #000031;
      }

      .cls-5 {
        stroke-width: .5px;
      }

      .cls-5, .cls-6, .cls-7 {
        stroke: #000031;
      }

      .cls-6 {
        stroke-width: .8px;
      }

      .cls-7 {
        stroke-width: 0px;
      }
    </style>
  </defs>
  <!-- Generator: Adobe Illustrator 28.7.1, SVG Export Plug-In . SVG Version: 1.2.0 Build 142)  -->
  <g>
    <g id="logo">
      <path id="_外枠" data-name="外枠" class="cls-3" d="M57.4,49c-3.1,7-7.6,13.8-12.8,19.4-4.1,4.3-8.4,7.6-11.7,9-3.3-1.5-7.5-4.8-11.5-9.2-5.1-5.6-9.5-12.6-12.4-19.6-3.6-8.8-5.3-18-5.4-30.6,7-3.7,11.9-4.7,16.9-4.9,1.4-5.3,5.9-10.3,12.5-10.3s12.3,5.2,13.5,10.5c5,.2,9.9,1.3,16.8,5.2-.2,12.6-2.1,21.8-5.9,30.5ZM47.8,11.1c-2.8-7.1-9.1-10.5-14.7-10.5s-11.8,3.3-14.8,10.2c-4.9.5-10,1.8-17.4,5.8,0,12.5,1.4,22.8,5.6,32.8,6.6,15.5,18.3,27.4,25.7,30.3h.2c0,0,.3,0,.3,0,7.5-2.7,19.4-14.4,26.2-29.8,4.4-9.9,6-20.1,6.2-32.7-7.3-4.2-12.4-5.6-17.3-6.1Z"/>
      <g>
        <path id="_下" data-name="下" class="cls-8" d="M18.7,10.8c5.9-13.1,22.7-13.6,29.1.5,10.8,1.6,17.1,6.4,17.1,6.4.8,26.8-13.3,52.2-32,62C13.2,69.1.6,45.1,1.1,16.7c8.2-5,17.7-5.9,17.7-5.9Z"/>
        <path id="_下-2" data-name="下" class="cls-8" d="M18.7,10.8c5.9-13.1,22.7-13.6,29.1.5,10.8,1.6,17.1,6.4,17.1,6.4.8,26.8-13.3,52.2-32,62C13.2,69.1.6,45.1,1.1,16.7c8.2-5,17.7-5.9,17.7-5.9Z"/>
        <path id="_外枠-2" data-name="外枠" class="cls-2" d="M33,77.7c-3.3-1.4-7.7-4.8-11.7-9.1-5.3-5.7-9.8-12.6-12.9-19.6-3.8-8.8-5.7-18.1-6.1-30.8,7.1-3.8,11.9-5,17-5.3,1.3-5.4,7.1-10.6,13.7-10.6s12.4,5.3,13.6,10.6c5.1.2,10,1.3,17,5.3-.3,12.7-2.1,22-6.1,30.8-3.1,7.1-7.7,13.9-12.9,19.6-3.9,4.3-8.3,7.7-11.6,9.1ZM33,79.9c7.6-2.7,19.5-14.6,26.4-30.1,4.4-10,6.1-20.3,6.3-33-7.4-4.2-12.5-5.7-17.5-6.2C45.3,3.4,38.8,0,33,0s-12.2,3.4-15.2,10.5c-5,.6-10.1,1.9-17.5,6.2.2,12.6,1.8,23,6.3,33,6.9,15.6,18.9,27.4,26.4,30.1Z"/>
        <g>
          <path class="cls-1" d="M33.1,20.6c-16.9,0-27.4,18.6-27.4,18.6,0,0,10.4,18.6,27.4,18.6s27.4-18.6,27.4-18.6c0,0-10.4-18.6-27.4-18.6Z"/>
          <g>
            <g>
              <polygon class="cls-5" points="28.3 33.1 29.1 30.6 33.2 39.7 25.6 33.1 28.3 33.1"/>
              <polygon class="cls-5" points="25.4 42.4 23.1 40.9 33.2 39.7 24.7 44.9 25.4 42.4"/>
              <polygon class="cls-5" points="33 48 30.9 49.6 33.2 39.9 35.1 49.8 33 48"/>
              <polygon class="cls-5" points="40.7 42.4 41.7 45.1 33.2 39.7 43.1 41 40.7 42.4"/>
              <polygon class="cls-5" points="38 33.3 40.9 33.3 33.2 39.7 37.4 30.6 38 33.3"/>
            </g>
            <g>
              <polygon class="cls-5" points="33.2 39.9 38.8 29.4 36.3 30 34.4 27.7 33.2 39.9"/>
              <polygon class="cls-5" points="33.2 39.9 32 27.9 30.3 29.8 27.4 29 33.2 39.9"/>
              <polygon class="cls-5" points="33.2 39.9 24.9 31.2 24.7 33.9 22 35 33.2 39.9"/>
              <polygon class="cls-5" points="33.2 39.9 21.4 37.4 22.7 39.7 21 42 33.2 39.9"/>
              <polygon class="cls-5" points="33.2 39.9 22.3 45.1 24.7 46.1 24.9 49.2 33.2 39.9"/>
              <polygon class="cls-5" points="33.2 39.9 34.7 51.9 36.5 50 39.4 50.5 33.2 39.9"/>
              <polygon class="cls-5" points="33.2 39.9 40.9 49.2 41.3 46.5 44 45.5 33.2 39.9"/>
              <polygon class="cls-5" points="33.2 39.9 45 42.4 43.6 40.1 45.2 37.6 33.2 39.9"/>
              <polygon class="cls-5" points="33.2 39.9 44.2 35.2 41.9 34.3 41.9 31.2 33.2 39.9"/>
              <polygon class="cls-5" points="33.2 39.9 27 50.3 29.5 49.8 31.4 52.1 33.2 39.9"/>
            </g>
            <g>
              <polygon class="cls-5" points="33.2 39.9 31.4 25.9 33.4 27.1 35.5 25.9 33.2 39.9"/>
              <polygon class="cls-5" points="33.2 39.9 19.2 37.6 21 36 20.4 33.7 33.2 39.9"/>
              <polygon class="cls-5" points="33.2 39.9 26.6 52.5 25.6 50.3 23.1 50 33.2 39.9"/>
              <polygon class="cls-5" points="33.2 39.9 42.9 50 40.7 50.3 39.6 52.5 33.2 39.9"/>
              <polygon class="cls-5" points="33.2 39.9 45.8 33.9 45.4 36.2 47.1 37.9 33.2 39.9"/>
            </g>
            <circle class="cls-6" cx="33.2" cy="39.9" r="3.3"/>
          </g>
        </g>
        <g>
          <circle class="cls-7" cx="33" cy="10.1" r=".7"/>
          <path class="cls-7" d="M32.8,8.8s-.1-1.2.2-1.2.2,1.2.2,1.2c0,0,.8-.1,1.1-1.7.2-1.5-.7-1.9-.7-1.9,0,0-.4.8-.6.8s-.5-.8-.5-.8c0,0-1.8,1.9.2,3.5Z"/>
          <path class="cls-7" d="M32.4,11.3s-.6,1.1-.8.8.5-1.1.5-1.1c0,0-.8-.5-1.8.7-1.1,1.1-.5,2-.5,2,0,0,.7-.5.8-.4s-.1.9-.1.9c0,0,2.7-.5,1.9-3.1Z"/>
          <path class="cls-7" d="M34,11.1s.8.8.6,1.1-.8-.8-.8-.8c0,0-.6.6.1,1.9s1.8,1.1,1.8,1.1c0,0-.2-.8,0-.9s.8.4.8.4c0,0,.2-2.5-2.5-2.6Z"/>
          <path class="cls-7" d="M31.8,9.4c-.4-1.2-.9-1.4-1.5-1.5s-1.8,0-1.7.2.7.4.6.7-1.1-.4-1.1,0,1.4,2.5,3.5,1.3c0,0-.9-.4-.9-.7.1-.4,1.1,0,1.1,0Z"/>
          <path class="cls-7" d="M34.2,9.4c.4-1.2.9-1.4,1.5-1.5s1.8,0,1.7.2-.7.4-.6.7,1.1-.4,1.1,0-1.4,2.5-3.5,1.3c0,0,.9-.4.9-.7-.1-.4-1.1,0-1.1,0Z"/>
        </g>
        <g>
          <circle class="cls-4" cx="62.1" cy="19.1" r="3"/>
          <g>
            <circle class="cls-9" cx="62.1" cy="19.2" r=".4"/>
            <circle class="cls-9" cx="62.1" cy="18.2" r=".4"/>
            <circle class="cls-9" cx="61" cy="18.8" r=".4"/>
            <circle class="cls-9" cx="61.4" cy="20.2" r=".4"/>
            <circle class="cls-9" cx="62.8" cy="20.2" r=".4"/>
            <circle class="cls-9" cx="63.2" cy="18.8" r=".4"/>
          </g>
        </g>
        <g>
          <circle class="cls-4" cx="3.9" cy="19.1" r="3"/>
          <g>
            <circle class="cls-9" cx="3.9" cy="19.2" r=".4"/>
            <circle class="cls-9" cx="3.9" cy="18.2" r=".4"/>
            <circle class="cls-9" cx="5" cy="18.8" r=".4"/>
            <circle class="cls-9" cx="4.6" cy="20.2" r=".4"/>
            <circle class="cls-9" cx="3.2" cy="20.2" r=".4"/>
            <circle class="cls-9" cx="2.8" cy="18.8" r=".4"/>
          </g>
        </g>
        <g>
          <path class="cls-4" d="M28.6,75.5l4.5,2.1,4.3-2.1s-2.8-6-4.3-6-4.5,6-4.5,6Z"/>
          <g>
            <circle class="cls-9" cx="33" cy="74" r=".5"/>
            <circle class="cls-9" cx="33" cy="72.6" r=".5"/>
            <circle class="cls-9" cx="31.7" cy="73.6" r=".5"/>
            <circle class="cls-9" cx="32.2" cy="75.2" r=".5"/>
            <circle class="cls-9" cx="33.9" cy="75.2" r=".5"/>
            <circle class="cls-9" cx="34.4" cy="73.6" r=".5"/>
          </g>
        </g>
      </g>
    </g>
  </g>
</svg>